<svg xmlns="http://www.w3.org/2000/svg" width="900" height="700" viewBox="0 0 900 700"><rect width="900" height="700" fill="#251433"/><defs><pattern id="dots" width="8" height="8" patternUnits="userSpaceOnUse"><circle cx="1" cy="1" r=".7" fill="#ffcbe8" opacity=".16"/></pattern></defs><rect width="900" height="700" fill="url(#dots)"/><path d="M580 95 L615 245 780 180 690 320 865 390 680 420 740 585 585 475 490 645 495 452 300 495 455 355 320 235 500 270Z" fill="#ff552c"/><circle cx="580" cy="370" r="40" fill="none" stroke="#251433" stroke-width="2"/><circle cx="580" cy="370" r="65" fill="none" stroke="#251433" stroke-width="2"/><circle cx="580" cy="370" r="90" fill="none" stroke="#251433" stroke-width="2"/><circle cx="580" cy="370" r="115" fill="none" stroke="#251433" stroke-width="2"/><circle cx="580" cy="370" r="140" fill="none" stroke="#251433" stroke-width="2"/><circle cx="580" cy="370" r="165" fill="none" stroke="#251433" stroke-width="2"/><circle cx="580" cy="370" r="190" fill="none" stroke="#251433" stroke-width="2"/><circle cx="580" cy="370" r="215" fill="none" stroke="#251433" stroke-width="2"/><circle cx="580" cy="370" r="240" fill="none" stroke="#251433" stroke-width="2"/><g fill="#ffcbe8" font-family="Arial,Helvetica,sans-serif"><text x="48" y="58" font-size="19" letter-spacing="4">TINITIX PRESENTS</text><text x="850" y="58" text-anchor="end" font-size="17">LIVE / 2026</text><text x="43" y="207" font-size="125" font-weight="900" letter-spacing="-6">AFTER</text><text x="43" y="322" font-size="125" font-weight="900" letter-spacing="-6">HOURS</text><text x="50" y="545" font-size="21" font-weight="700" letter-spacing="1">DIPHA BARUS  /  W.W  /  RBA</text><path d="M48 577 H852" stroke="#ffcbe8" opacity=".6"/><text x="48" y="627" font-size="28" font-weight="700">21 NOV 2026</text><text x="48" y="660" font-size="17" letter-spacing="2">BENGKEL SPACE · JAKARTA</text><text x="851" y="646" text-anchor="end" font-size="42" font-weight="900" letter-spacing="-3">tinitix.</text></g></svg>
