<svg xmlns="http://www.w3.org/2000/svg" width="900" height="700" viewBox="0 0 900 700"><rect width="900" height="700" fill="#0b1723"/><defs><pattern id="dots" width="8" height="8" patternUnits="userSpaceOnUse"><circle cx="1" cy="1" r=".7" fill="#c6f579" opacity=".16"/></pattern></defs><rect width="900" height="700" fill="url(#dots)"/><ellipse cx="440" cy="440" rx="120" ry="45" transform="rotate(-28 440 440)" fill="none" stroke="#7786ff" stroke-width="2" opacity=".7"/><ellipse cx="440" cy="440" rx="138" ry="52" transform="rotate(-28 440 440)" fill="none" stroke="#7786ff" stroke-width="2" opacity=".7"/><ellipse cx="440" cy="440" rx="156" ry="59" transform="rotate(-28 440 440)" fill="none" stroke="#7786ff" stroke-width="2" opacity=".7"/><ellipse cx="440" cy="440" rx="174" ry="66" transform="rotate(-28 440 440)" fill="none" stroke="#7786ff" stroke-width="2" opacity=".7"/><ellipse cx="440" cy="440" rx="192" ry="73" transform="rotate(-28 440 440)" fill="none" stroke="#7786ff" stroke-width="2" opacity=".7"/><ellipse cx="440" cy="440" rx="210" ry="80" transform="rotate(-28 440 440)" fill="none" stroke="#7786ff" stroke-width="2" opacity=".7"/><ellipse cx="440" cy="440" rx="228" ry="87" transform="rotate(-28 440 440)" fill="none" stroke="#7786ff" stroke-width="2" opacity=".7"/><ellipse cx="440" cy="440" rx="246" ry="94" transform="rotate(-28 440 440)" fill="none" stroke="#7786ff" stroke-width="2" opacity=".7"/><ellipse cx="440" cy="440" rx="264" ry="101" transform="rotate(-28 440 440)" fill="none" stroke="#7786ff" stroke-width="2" opacity=".7"/><ellipse cx="440" cy="440" rx="282" ry="108" transform="rotate(-28 440 440)" fill="none" stroke="#7786ff" stroke-width="2" opacity=".7"/><ellipse cx="440" cy="440" rx="300" ry="115" transform="rotate(-28 440 440)" fill="none" stroke="#7786ff" stroke-width="2" opacity=".7"/><ellipse cx="440" cy="440" rx="318" ry="122" transform="rotate(-28 440 440)" fill="none" stroke="#7786ff" stroke-width="2" opacity=".7"/><ellipse cx="440" cy="440" rx="336" ry="129" transform="rotate(-28 440 440)" fill="none" stroke="#7786ff" stroke-width="2" opacity=".7"/><ellipse cx="440" cy="440" rx="354" ry="136" transform="rotate(-28 440 440)" fill="none" stroke="#7786ff" stroke-width="2" opacity=".7"/><ellipse cx="440" cy="440" rx="372" ry="143" transform="rotate(-28 440 440)" fill="none" stroke="#7786ff" stroke-width="2" opacity=".7"/><g fill="#c6f579" font-family="Arial,Helvetica,sans-serif"><text x="48" y="58" font-size="19" letter-spacing="4">TINITIX PRESENTS</text><text x="850" y="58" text-anchor="end" font-size="17">LIVE / 2026</text><text x="43" y="207" font-size="125" font-weight="900" letter-spacing="-6">MIDNIGHT</text><text x="43" y="322" font-size="95" font-weight="900" letter-spacing="-6">FREQUENCY</text><text x="50" y="545" font-size="21" font-weight="700" letter-spacing="1">DISKORIA  /  PRONTAXAN  /  FEEL KOPLO</text><path d="M48 577 H852" stroke="#c6f579" opacity=".6"/><text x="48" y="627" font-size="28" font-weight="700">07 NOV 2026</text><text x="48" y="660" font-size="17" letter-spacing="2">THE PALLAS · JAKARTA</text><text x="851" y="646" text-anchor="end" font-size="42" font-weight="900" letter-spacing="-3">tinitix.</text></g></svg>
